HIERARCHY
ROOT hip
{
	OFFSET 0.000000 0.000000 0.000000 
	CHANNELS 6 Xposition Yposition Zposition Zrotation Xrotation Yrotation
	JOINT abdomen
	{
		OFFSET 0.000000 3.402643 0.000000 
		CHANNELS 3 Zrotation Xrotation Yrotation
		JOINT chest
		{
			OFFSET 0.000000 8.438565 -0.680529 
			CHANNELS 3 Zrotation Xrotation Yrotation
			JOINT neck
			{
				OFFSET 0.000000 10.207942 -0.272212 
				CHANNELS 3 Zrotation Xrotation Yrotation
				JOINT head
				{
					OFFSET 0.000000 3.130431 0.000000 
					CHANNELS 3 Zrotation Xrotation Yrotation
					End Site
					{
						OFFSET 0.000000 3.130435 0.000000 
					}
				}
			}
			JOINT lCollar
			{
				OFFSET 3.470700 6.669187 -0.816635 
				CHANNELS 3 Zrotation Xrotation Yrotation
				JOINT lShldr
				{
					OFFSET 3.198488 0.000000 0.000000 
					CHANNELS 3 Zrotation Xrotation Yrotation
					JOINT lForeArm
					{
						OFFSET 10.139888 0.000000 0.000000 
						CHANNELS 3 Zrotation Xrotation Yrotation
						JOINT lHand
						{
							OFFSET 8.370511 0.000000 0.000000 
							CHANNELS 3 Zrotation Xrotation Yrotation
							End Site
							{
								OFFSET 4.083176 0.000000 0.000000 
							}
						}
					}
				}
			}
			JOINT rCollar
			{
				OFFSET -3.470700 6.669187 -0.816635 
				CHANNELS 3 Zrotation Xrotation Yrotation
				JOINT rShldr
				{
					OFFSET -3.198488 0.000000 0.000000 
					CHANNELS 3 Zrotation Xrotation Yrotation
					JOINT rForeArm
					{
						OFFSET -10.139888 0.000000 0.000000 
						CHANNELS 3 Zrotation Xrotation Yrotation
						JOINT rHand
						{
							OFFSET -8.370511 0.000000 0.000000 
							CHANNELS 3 Zrotation Xrotation Yrotation
							End Site
							{
								OFFSET -4.083176 0.000000 0.000000 
							}
						}
					}
				}
			}
		}
	}
	JOINT lThigh
	{
		OFFSET 5.308129 -1.633274 1.361059 
		CHANNELS 3 Zrotation Xrotation Yrotation
		JOINT lShin
		{
			OFFSET -2.041588 -20.007561 0.000000 
			CHANNELS 3 Zrotation Xrotation Yrotation
			JOINT lFoot
			{
				OFFSET 0.000000 -19.190928 -1.224953 
				CHANNELS 3 Zrotation Xrotation Yrotation
				End Site
				{
					OFFSET 0.000000 -2.449906 4.627600 
				}
			}
		}
	}
	JOINT rThigh
	{
		OFFSET -5.308129 -1.633274 1.361059 
		CHANNELS 3 Zrotation Xrotation Yrotation
		JOINT rShin
		{
			OFFSET 2.041588 -20.007561 0.000000 
			CHANNELS 3 Zrotation Xrotation Yrotation
			JOINT rFoot
			{
				OFFSET 0.000000 -19.190928 -1.224953 
				CHANNELS 3 Zrotation Xrotation Yrotation
				End Site
				{
					OFFSET 0.000000 -2.449906 4.627600 
				}
			}
		}
	}
}
MOTION
Frames: 9
Frame Time: 0.033333
-2.841913 27.061043 2.789538 -12.169919 15.367077 3.483747 0.101654 16.123024 -0.125869 7.953335 -9.576702 -0.553262 -0.000000 -0.000003 -0.000000 -0.000000 0.000001 -0.000000 -5.687435 -0.268816 2.011532 -73.643036 14.377046 -9.741508 -18.743805 29.440891 -9.952844 29.200775 -14.217213 -2.417794 24.386629 -1.383353 1.094576 56.729721 7.695220 28.729733 14.888296 45.779617 43.803219 42.825539 22.523729 -33.741852 22.123119 -27.748774 8.377305 166.841049 80.488548 177.225906 4.664973 57.625286 -12.383320 170.923035 -74.657143 168.473389 50.219421 87.091614 -61.653576 2.477890 1.941619 -4.190109 
-2.841913 27.061043 2.789538 -12.169919 15.367077 3.483747 0.101654 16.123024 -0.125869 7.953335 -9.576702 -0.553262 -0.000000 -0.000003 -0.000000 -0.000000 0.000001 -0.000000 -5.687435 -0.268816 2.011532 -73.643036 14.377046 -9.741508 -18.743805 29.440891 -9.952844 29.200775 -14.217213 -2.417794 24.386629 -1.383353 1.094576 56.729721 7.695220 28.729733 14.888296 45.779617 43.803219 42.825539 22.523729 -33.741852 22.123119 -27.748774 8.377305 166.841049 80.488548 177.225906 4.664973 57.625286 -12.383320 170.923035 -74.657143 168.473389 50.219421 87.091614 -61.653576 2.477890 1.941619 -4.190109 
-2.841913 27.061043 2.789538 -12.169919 15.367077 3.483747 0.101654 16.123024 -0.125869 7.953335 -9.576702 -0.553262 -0.000000 -0.000003 -0.000000 -0.000000 0.000001 -0.000000 -5.687435 -0.268816 2.011532 -73.643036 14.377046 -9.741508 -18.743805 29.440891 -9.952844 29.200775 -14.217213 -2.417794 24.386629 -1.383353 1.094576 56.729721 7.695220 28.729733 14.888296 45.779617 43.803219 42.825539 22.523729 -33.741852 22.123119 -27.748774 8.377305 166.841049 80.488548 177.225906 4.664973 57.625286 -12.383320 170.923035 -74.657143 168.473389 50.219421 87.091614 -61.653576 2.477890 1.941619 -4.190109 
-3.141723 29.374002 2.890088 -8.248209 16.063353 2.607737 0.127761 16.641619 0.080506 5.458847 -9.907227 -0.206876 -0.027747 -0.033140 0.007431 -0.045234 0.143531 -0.190511 -9.052303 -0.615899 1.669149 -70.446747 13.473364 -13.991939 -19.806494 33.101524 -15.282537 22.284628 -1.706071 3.020315 21.737312 -1.776393 0.686938 58.799881 9.325768 25.888655 17.370560 43.489033 37.483017 30.617968 17.917919 -25.856405 22.142006 -44.310860 14.489766 174.057602 67.672539 174.028854 11.489623 41.234097 -12.082643 179.732635 -75.998024 175.666580 177.752808 76.244858 175.795105 -2.066953 11.061539 0.272484 
-3.130903 29.403135 2.889296 -0.510013 16.218742 0.306643 0.054157 16.598129 0.150591 0.405352 -9.959750 0.106887 -0.028150 -0.022674 0.009331 -0.044850 0.124164 -0.181401 -14.970938 -1.092004 0.632126 -64.907913 11.299670 -20.008909 -19.512520 38.123905 -25.440023 2.243958 14.518321 14.108447 15.782279 -1.533347 -0.275713 64.010216 11.447513 19.909695 19.419394 37.790997 26.563828 7.771768 6.614798 -12.022714 30.455687 -76.822655 33.048851 177.130142 61.262825 178.779449 10.815884 22.024332 -6.102403 -41.634216 -80.008492 -44.397644 -175.798691 61.434093 178.245300 -10.675323 20.125700 6.616578 
-2.975589 29.927370 2.838626 7.471332 15.829502 -2.116184 -0.048967 16.317068 0.143309 -4.851179 -9.788001 0.374525 -0.014478 -0.000875 0.006565 -0.022041 0.042717 -0.081608 -20.932693 -1.338673 -0.472844 -59.676189 9.008150 -25.618732 -17.259586 43.080368 -36.663837 -25.315304 22.222029 27.164944 9.462675 -0.846539 -1.357478 69.946434 13.352503 13.566090 19.484718 32.313286 16.029007 -15.166516 -6.467337 -1.639912 -176.022491 -78.851601 -172.027405 -174.106934 75.568901 178.880325 2.149063 10.287483 0.279720 -22.694965 -46.699089 -15.007783 -172.393692 67.531151 -176.894852 -12.239690 37.529289 12.778731 
-2.841913 27.061043 2.789538 12.159804 15.367633 -3.492818 -0.111820 16.123018 0.118925 -7.963240 -9.576473 0.540515 -0.000000 -0.000003 -0.000000 -0.000000 0.000001 -0.000000 -24.396442 -1.371084 -1.103386 -56.740433 7.690426 -28.739246 -14.905103 45.807484 -43.815235 -42.883003 22.502405 33.715057 5.677635 -0.269442 -2.021281 73.635506 14.379040 9.731503 18.723326 29.432032 9.938146 -29.272236 -14.190574 2.392895 -168.353851 -74.534309 -166.691833 -63.709980 85.666672 74.223000 -2.583613 1.571999 4.741835 -23.281330 -27.549747 -8.432553 -162.692825 80.378326 178.322800 -7.553018 57.059814 15.362299 
-2.841913 27.061043 2.789538 12.159804 15.367633 -3.492818 -0.111820 16.123018 0.118925 -7.963240 -9.576473 0.540515 -0.000000 -0.000003 -0.000000 -0.000000 0.000001 -0.000000 -24.396442 -1.371084 -1.103386 -56.740433 7.690426 -28.739246 -14.905103 45.807484 -43.815235 -42.883003 22.502405 33.715057 5.677635 -0.269442 -2.021281 73.635506 14.379040 9.731503 18.723326 29.432032 9.938146 -29.272236 -14.190574 2.392895 -168.353851 -74.534309 -166.691833 -63.709980 85.666672 74.223000 -2.583613 1.571999 4.741835 -23.281330 -27.549747 -8.432553 -162.692825 80.378326 178.322800 -7.553018 57.059814 15.362299 
-2.841913 27.061043 2.789538 12.159805 15.367633 -3.492818 -0.111820 16.123018 0.118925 -7.963241 -9.576475 0.540515 -0.000000 -0.000003 -0.000000 -0.000000 0.000002 -0.000000 -24.396442 -1.371087 -1.103389 -56.740429 7.690422 -28.739243 -14.905103 45.807484 -43.815231 -42.883003 22.502405 33.715054 5.677637 -0.269440 -2.021283 73.635506 14.379042 9.731503 18.723324 29.432032 9.938146 -29.272234 -14.190573 2.392894 -168.353851 -74.534309 -166.691833 -63.709942 85.666672 74.222969 -2.583613 1.571999 4.741835 -23.281330 -27.549747 -8.432553 -162.692810 80.378326 178.322800 -7.553018 57.059814 15.362299 
